<svg xmlns="http://www.w3.org/2000/svg" viewBox="0 0 70 70" id="clientes"><path fill="#7C7C7C" d="M52.9 25.9h-2.9c-.8 0-1.4.6-1.4 1.3v.2c0 .1 0 .2.1.2.1.4.2.9.2 1.3v.2l-1.2 12.7v.4c-.2 1.1-.7 2-1.6 2.8-.5.4-1 .7-1.7.9h-.1c-.5.2-.8.6-.9 1v.2l-.6 7.1v.2c0 .7.6 1.3 1.4 1.3h4.1c.9 0 1.6-.6 1.8-1.4v-.3l1-11.5v-.1c.1-.5.5-1 1.1-1h.7c.9 0 1.6-.6 1.8-1.5v-.2l1-11.1c0-1.5-1.3-2.7-2.8-2.7zm-8.8-2.5l.3.1c.5.1 1 .2 1.5.2 3.4 0 6.1-2.6 6.1-5.9 0-3.3-2.7-5.9-6.1-5.9h-.6c-.7.1-1.2.6-1.2 1.3 0 .1 0 .3.1.4 0 0 0 .1.1.1.3.9.5 1.9.5 3 0 1.7-.5 3.3-1.3 4.7l-.1.1c-.1.2-.2.4-.2.6 0 .6.4 1.1.9 1.3zm-1.2 20.2c1 0 1.9-.7 2-1.7v-.2l1.2-12.7c0-1.7-1.4-3-3.2-3h-15.9c-1.7 0-3.2 1.4-3.2 3l1.2 12.6v.4c.2.9 1 1.6 2 1.6h.7999999999999999c.5 0 .9.3 1.2.8.1.1.1.2.1.4v.2l1.2 13v.3c.2.9 1 1.7 2 1.7h5.4c1 0 1.8-.7 2-1.6v-.4l1.1-13.2v-.1l.1-.4c.2-.4.6-.7 1.2-.8h.2l.6.1zm-7.9-20.2c2.3 0 4.3-1.1 5.6-2.7.9-1.1 1.4-2.5 1.4-4 0-1-.2-2-.7-2.8-1.1-2.3-3.5-3.9-6.3-3.9s-5.2 1.6-6.3 3.9c-.4.9-.7 1.8-.7 2.8 0 1.5.5 2.9 1.4 4 1.3 1.7 3.3 2.7 5.6 2.7zm-7.8 30.9l-.6-7.1v-.2c-.1-.5-.4-.9-.9-1h-.1c-1.6-.5-2.9-1.8-3.2-3.5v-.6000000000000001l-1.2-12.6v-.2c0-.5.1-.9.2-1.3 0-.1 0-.2.1-.3v-.2c0-.7-.6-1.3-1.4-1.3h-2.9c-1.5 0-2.8 1.2-2.8 2.7l1 11v.3c.2.8.9 1.4 1.8 1.4h.7c.6 0 1 .4 1.1 1v.1l1 11.6v.3c.1.8.9 1.5 1.8 1.5h4.1c.8 0 1.4-.6 1.4-1.3l-.1-.3zm-3.1-30.6c.5 0 1-.1 1.5-.2l.3-.1c.6-.2.9-.7.9-1.3 0-.2-.1-.4-.2-.6l-.1-.1c-.8-1.4-1.3-3-1.3-4.7 0-1 .2-2 .5-3 0 0 0-.1.1-.1 0-.1.1-.2.1-.4 0-.7-.5-1.2-1.2-1.3h-.6c-3.4 0-6.1 2.6-6.1 5.9 0 3.2 2.7 5.9 6.1 5.9z"/></svg>