<svg xmlns="http://www.w3.org/2000/svg" viewBox="0 0 70 70" id="contacto"><path fill-rule="evenodd" clip-rule="evenodd" fill="#7C7C7C" d="M49.7 45.7v-25s-.2-4.5-7-4.5h-14.4c-7.5 0-7 4.5-7 4.5v28.6c0 2 1.4 3.6 3.4 3.6 0-2 1.6-3.6 3.6-3.6h3.6c2 0 3.6 1.6 3.6 3.6v3.6c0 2-1.6 3.6-3.6 3.6h-3.6c-2 0-3.6-1.6-3.6-3.6-4 0-7.2-3.2-7.2-7.1v-4.2c-8.2-2.7-10.6-15.8 0-20.1v-4.2c0-5.9 4.8-10.7 10.8-10.7h14.4c6 0 10.8 4.8 10.8 10.7v4.2c10 4.2 6.8 18.9-3.8 20.6zm-32.2-14.3h-3.6v7.1h3.6v-7.1zm39.6 0h-3.6v7.1h3.6v-7.1z"/></svg>