<svg xmlns="http://www.w3.org/2000/svg" viewBox="0 0 70 70" id="lineas-de-trabajo"><path fill="#7C7C7C" d="M51.8 26.2c-.4-.5-.9-.9-1.6-.9h-1.9c-1.1 0-1.9.9-1.9 1.9v11.5c0 1.1.9 1.9 1.9 1.9h7.7c1.1 0 1.9-.9 1.9-1.9v-2.7c0-.4-.1-.8-.3-1.1l-5.8-8.7zm4.2 12.6h-7.6v-11.5h1.9l5.7 8.7v2.8zm8.5-5.1l-7.6-11.5c-1.1-1.6-2.8-2.6-4.8-2.6h-7.6v-3.8c0-3.2-2.6-5.8-5.7-5.8h-28.6c-3.2 0-5.7 2.6-5.7 5.8v21.2c0 3.2 2.6 5.8 5.7 5.8v5.8c0 3.2 2.6 5.8 5.7 5.8h2.2c.9 3.3 3.8 5.8 7.4 5.8 3.5 0 6.5-2.5 7.4-5.8h10.1c.9 3.3 3.8 5.8 7.4 5.8 3.5 0 6.5-2.5 7.4-5.8h2.2c3.2 0 5.7-2.6 5.7-5.8v-11.7c-.2-1.1-.5-2.2-1.2-3.2zm-54.3 5.1c-1.1 0-1.9-.9-1.9-1.9v-21.1c0-1.1.9-1.9 1.9-1.9h28.6c1.1 0 1.9.9 1.9 1.9v21.2c0 1.1-.9 1.9-1.9 1.9h-28.6zm15.3 17.4c-2.1 0-3.8-1.7-3.8-3.8 0-2.1 1.7-3.8 3.8-3.8 2.1 0 3.8 1.7 3.8 3.8 0 2-1.7 3.8-3.8 3.8zm24.7 0c-2.1 0-3.8-1.7-3.8-3.8 0-2.1 1.7-3.8 3.8-3.8 2.1 0 3.8 1.7 3.8 3.8.1 2-1.7 3.8-3.8 3.8zm11.5-7.7c0 1.1-.9 1.9-1.9 1.9h-2.2c-.9-3.3-3.8-5.8-7.4-5.8-3.5 0-6.5 2.5-7.4 5.8h-10c-.9-3.3-3.8-5.8-7.4-5.8-3.5 0-6.5 2.5-7.4 5.8h-2.2c-1.1 0-1.9-.9-1.9-1.9v-5.8h24.8c3.2 0 5.7-2.6 5.7-5.8v-13.4h7.6c.6 0 1.2.3 1.6.9l7.6 11.5c.2.3.3.7.3 1.1v11.5z"/></svg>