<svg xmlns="http://www.w3.org/2000/svg" viewBox="0 0 571 178" id="logo"><path d="M349 30.3c-11.9 0-18.9 6-18.9 6v-3.7h-15.4v72.4h16.2v-39.6c0-12.9 6.5-19.2 16.9-19.2 9.5 0 14 6.8 14 19.2v39.6h16.2v-46.8c0-24-21.3-27.9-29-27.9zM288.1 37.7c-6.2-4.6-13.9-7.4-22.3-7.4-.9 0-5.3 0-11.8 1.9-14.8 4.9-25.6 18.9-25.6 35.4 0 20.6 16.7 37.3 37.3 37.3 8.4 0 16.1-2.7 22.3-7.4v5.9h15v-70.7h-15v5zm-22.3 51.5c-11.9 0-21.5-9.6-21.5-21.5s9.6-21.5 21.5-21.5 21.5 9.6 21.5 21.5-9.6 21.5-21.5 21.5z"/><path fill="#BEC438" d="M246.2 26.6c6.7-3.1 11.5-3.8 12.5-3.9 9-1.2 17.7.4 25.2 5.6-4.5-11.2-15.8-18.4-29.4-16.4-14.5 2.2-25.2 13.6-25.2 30.9 3.5-6.8 9.2-12.3 16.9-16.2z"/><path d="M537 37.7c-6.2-4.6-13.9-7.4-22.3-7.4-.9 0-5.3 0-11.8 1.9-14.8 4.9-25.6 18.9-25.6 35.4 0 20.6 16.7 37.3 37.4 37.3 8.4 0 16.1-2.7 22.3-7.4v5.9h15v-70.7h-15v5zm-22.3 51.5c-11.9 0-21.5-9.6-21.5-21.5s9.6-21.5 21.5-21.5 21.5 9.6 21.5 21.5-9.7 21.5-21.5 21.5zM467.9 83.6c-4.3 3.4-9.2 5.6-15.1 5.6s-11.3-2.4-15.2-6.3c-3.9-3.9-6.3-9.3-6.3-15.2 0-5.9 2.4-11.3 6.3-15.2 3.9-3.9 9.3-6.3 15.2-6.3 5.9 0 11.1 2.1 15.1 5.6 1.9-5 4.4-9.4 7.4-14-6.3-4.7-14-7.5-22.5-7.5-10.3 0-19.7 4.2-26.4 11-6.8 6.8-10.9 16.1-10.9 26.4 0 10.3 4.2 19.7 10.9 26.4 6.8 6.8 16.1 11 26.4 11 8.4 0 16.2-2.8 22.5-7.5-2.8-4.3-5.3-8.5-7.4-14zM52.1 30.3c-20.6 0-37.3 16.7-37.3 37.3 0 20.6 16.7 37.3 37.3 37.3 20.6 0 37.3-16.7 37.3-37.3 0-20.6-16.7-37.3-37.3-37.3zm0 58.7c-11.9 0-21.5-9.6-21.5-21.4 0-11.8 9.6-21.4 21.5-21.4 11.8 0 21.4 9.6 21.4 21.4.1 11.9-9.5 21.4-21.4 21.4zM218.3 69.1c0-21.4-17.3-38.8-38.8-38.8-21.4 0-38.8 17.4-38.8 38.8s15.7 37.9 38.8 38.7h.1c8 0 11.6 2.5 15.6 6.5s6.5 9.6 6.5 15.8c0 6.2-2.5 11.7-6.5 15.8-4 4-9.6 6.5-15.8 6.5-6.2 0-11.7-2.5-15.8-6.5-4-4-6.5-9.6-6.5-15.8h-16.4c0 10.7 4.3 20.4 11.4 27.4 7 7 16.7 11.3 27.4 11.3s20.4-4.3 27.4-11.3c7-7 11.4-16.7 11.4-27.4s-4.3-20.4-11.4-27.4l-.6-.6c-1.2-1.1-1.6-3.5 0-5.1 7.5-7.7 12-16.3 12-27.9zm-38.7 22.3c-12.4 0-22.4-10-22.4-22.3s10-22.3 22.3-22.3 22.3 10 22.3 22.3-9.9 22.2-22.2 22.3zM388.3 30.3h16.7v74.6h-16.7zM137.9 30.3c-25.7 0-39.5 13.7-39.5 39.5v35.2h16.7v-35.2c0-19.3 12.3-22.7 22.7-22.7v-16.8z"/><g fill="#9C9A29"><path d="M234.8 125.5c.5.4 1.5.7 2.4.7 1.3 0 2-.7 2-1.5 0-.9-.5-1.4-1.9-1.9-1.8-.7-2.7-1.7-2.7-2.9 0-1.6 1.3-3 3.5-3 1 0 1.9.3 2.5.6l-.5 1.3c-.4-.3-1.1-.6-2.1-.6-1.1 0-1.7.6-1.7 1.4 0 .8.6 1.2 1.9 1.7 1.8.7 2.7 1.6 2.7 3.1 0 1.8-1.4 3-3.8 3-1.1 0-2.1-.3-2.9-.7l.6-1.2zM255.2 122.2c0 3.8-2.6 5.4-5.1 5.4-2.8 0-4.9-2-4.9-5.2 0-3.4 2.2-5.4 5-5.4 3 0 5 2.1 5 5.2zm-8.1.1c0 2.2 1.3 3.9 3.1 3.9s3.1-1.7 3.1-3.9c0-1.7-.9-3.9-3-3.9s-3.2 2-3.2 3.9zM260 112.5h1.8v14.9h-1.8v-14.9zM276 124.6c0 1 0 2 .1 2.8h-1.6l-.1-1.7c-.5.8-1.6 1.9-3.4 1.9-1.6 0-3.5-.9-3.5-4.5v-5.9h1.8v5.6c0 1.9.6 3.2 2.3 3.2 1.2 0 2.1-.9 2.4-1.7.1-.3.2-.6.2-.9v-6.2h1.8v7.4zM288.9 127c-.5.3-1.6.6-2.9.6-3.1 0-5.1-2.1-5.1-5.2s2.1-5.4 5.5-5.4c1.1 0 2.1.3 2.6.5l-.4 1.4c-.4-.3-1.1-.5-2.1-.5-2.3 0-3.6 1.7-3.6 3.8 0 2.4 1.5 3.8 3.5 3.8 1 0 1.7-.3 2.3-.5l.2 1.5zM295.6 114.4c0 .6-.4 1.1-1.2 1.1-.7 0-1.1-.5-1.1-1.1 0-.7.5-1.2 1.2-1.2s1.1.5 1.1 1.2zm-2 13v-10.2h1.8v10.2h-1.8zM310.2 122.2c0 3.8-2.6 5.4-5.1 5.4-2.8 0-4.9-2-4.9-5.2 0-3.4 2.2-5.4 5-5.4 3 0 5 2.1 5 5.2zm-8.1.1c0 2.2 1.3 3.9 3.1 3.9s3.1-1.7 3.1-3.9c0-1.7-.9-3.9-3-3.9s-3.2 2-3.2 3.9zM315.1 120c0-1 0-1.9-.1-2.8h1.6l.1 1.7c.5-1 1.7-1.9 3.4-1.9 1.4 0 3.6.8 3.6 4.3v6.1h-1.8v-5.9c0-1.6-.6-3-2.4-3-1.2 0-2.2.9-2.5 1.9-.1.2-.1.5-.1.9v6.1h-1.8v-7.4zM330.3 122.7c0 2.5 1.6 3.5 3.5 3.5 1.3 0 2.1-.2 2.8-.5l.3 1.3c-.7.3-1.8.6-3.4.6-3.1 0-5-2.1-5-5.1s1.8-5.5 4.8-5.5c3.3 0 4.2 2.9 4.2 4.8 0 .4 0 .7-.1.9h-7.1zm5.4-1.4c0-1.2-.5-3-2.6-3-1.9 0-2.7 1.7-2.8 3h5.4zM342.1 125.5c.5.4 1.5.7 2.4.7 1.3 0 2-.7 2-1.5 0-.9-.5-1.4-1.9-1.9-1.8-.7-2.7-1.7-2.7-2.9 0-1.6 1.3-3 3.5-3 1 0 1.9.3 2.5.6l-.5 1.3c-.4-.3-1.1-.6-2.1-.6-1.1 0-1.7.6-1.7 1.4 0 .8.6 1.2 1.9 1.7 1.8.7 2.7 1.6 2.7 3.1 0 1.8-1.4 3-3.8 3-1.1 0-2.1-.3-2.9-.7l.6-1.2zM365.8 127.4l-.1-1.3h-.1c-.6.8-1.7 1.5-3.1 1.5-2.1 0-3.1-1.4-3.1-2.9 0-2.5 2.2-3.8 6.1-3.8v-.2c0-.8-.2-2.4-2.3-2.4-.9 0-1.9.3-2.6.8l-.4-1.2c.8-.5 2.1-.9 3.3-.9 3.1 0 3.9 2.1 3.9 4.2v3.8c0 .9 0 1.7.2 2.4h-1.8zm-.3-5.2c-2 0-4.3.3-4.3 2.3 0 1.2.8 1.8 1.7 1.8 1.3 0 2.2-.8 2.5-1.7.1-.2.1-.4.1-.6v-1.8zM372.8 120c0-1 0-1.9-.1-2.8h1.6l.1 1.6h.1c.6-1 1.5-1.9 3.2-1.9 1.4 0 2.4.8 2.9 2 .3-.6.7-1 1.1-1.3.6-.5 1.3-.7 2.2-.7 1.3 0 3.3.9 3.3 4.4v6h-1.8v-5.8c0-2-.7-3.1-2.2-3.1-1 0-1.9.8-2.2 1.7-.1.3-.1.6-.1.9v6.3h-1.8v-6.1c0-1.6-.7-2.8-2.1-2.8-1.2 0-2 .9-2.3 1.8-.1.3-.1.6-.1.9v6.1h-1.8v-7.2zM392.8 127.4c0-.7.1-1.7.1-2.6v-12.3h1.8v6.4c.7-1.1 1.8-1.9 3.5-1.9 2.5 0 4.3 2.1 4.3 5.2 0 3.6-2.3 5.4-4.6 5.4-1.5 0-2.6-.6-3.4-1.9h-.1l-.1 1.7h-1.5zm1.9-4.1c0 .2 0 .5.1.7.4 1.3 1.4 2.2 2.8 2.2 1.9 0 3.1-1.6 3.1-3.9 0-2-1-3.8-3-3.8-1.3 0-2.4.9-2.8 2.3 0 .2-.1.5-.1.8v1.7zM409.4 114.4c0 .6-.4 1.1-1.2 1.1-.7 0-1.1-.5-1.1-1.1 0-.7.5-1.2 1.2-1.2s1.1.5 1.1 1.2zm-2 13v-10.2h1.8v10.2h-1.8zM415.8 122.7c0 2.5 1.6 3.5 3.5 3.5 1.3 0 2.1-.2 2.8-.5l.3 1.3c-.7.3-1.8.6-3.4.6-3.1 0-5-2.1-5-5.1s1.8-5.5 4.8-5.5c3.3 0 4.2 2.9 4.2 4.8 0 .4 0 .7-.1.9h-7.1zm5.5-1.4c0-1.2-.5-3-2.6-3-1.9 0-2.7 1.7-2.8 3h5.4zM427.9 120c0-1 0-1.9-.1-2.8h1.6l.1 1.7c.5-1 1.7-1.9 3.4-1.9 1.4 0 3.6.8 3.6 4.3v6.1h-1.8v-5.9c0-1.6-.6-3-2.4-3-1.2 0-2.2.9-2.5 1.9-.1.2-.1.5-.1.9v6.1h-1.8v-7.4zM444.2 114.3v2.9h2.6v1.4h-2.6v5.5c0 1.3.4 2 1.4 2 .5 0 .8-.1 1.1-.1l.1 1.4c-.4.1-.9.3-1.6.3-.9 0-1.6-.3-2-.8-.5-.5-.7-1.4-.7-2.6v-5.5h-1.6v-1.4h1.6v-2.4l1.7-.7zM457.1 127.4l-.1-1.3h-.1c-.6.8-1.7 1.5-3.1 1.5-2.1 0-3.1-1.4-3.1-2.9 0-2.5 2.2-3.8 6.1-3.8v-.2c0-.8-.2-2.4-2.3-2.4-.9 0-1.9.3-2.6.8l-.4-1.2c.8-.5 2.1-.9 3.3-.9 3.1 0 3.9 2.1 3.9 4.2v3.8c0 .9 0 1.7.2 2.4h-1.8zm-.3-5.2c-2 0-4.3.3-4.3 2.3 0 1.2.8 1.8 1.7 1.8 1.3 0 2.2-.8 2.5-1.7.1-.2.1-.4.1-.6v-1.8zM464.1 112.5h1.8v14.9h-1.8v-14.9zM472.6 122.7c0 2.5 1.6 3.5 3.5 3.5 1.3 0 2.1-.2 2.8-.5l.3 1.3c-.7.3-1.8.6-3.4.6-3.1 0-5-2.1-5-5.1s1.8-5.5 4.8-5.5c3.3 0 4.2 2.9 4.2 4.8 0 .4 0 .7-.1.9h-7.1zm5.5-1.4c0-1.2-.5-3-2.6-3-1.9 0-2.7 1.7-2.8 3h5.4zM484.4 125.5c.5.4 1.5.7 2.4.7 1.3 0 2-.7 2-1.5 0-.9-.5-1.4-1.9-1.9-1.8-.7-2.7-1.7-2.7-2.9 0-1.6 1.3-3 3.5-3 1 0 1.9.3 2.5.6l-.5 1.3c-.4-.3-1.1-.6-2.1-.6-1.1 0-1.7.6-1.7 1.4 0 .8.6 1.2 1.9 1.7 1.8.7 2.7 1.6 2.7 3.1 0 1.8-1.4 3-3.8 3-1.1 0-2.1-.3-2.9-.7l.6-1.2zM502.3 125.2c.8.5 2 .9 3.3.9 1.9 0 3-1 3-2.4 0-1.3-.8-2.1-2.7-2.8-2.3-.8-3.7-2-3.7-4 0-2.2 1.8-3.8 4.6-3.8 1.4 0 2.5.3 3.1.7l-.5 1.5c-.5-.3-1.4-.7-2.7-.7-1.9 0-2.7 1.2-2.7 2.1 0 1.3.9 2 2.8 2.7 2.4.9 3.6 2.1 3.6 4.2 0 2.2-1.6 4.1-5 4.1-1.4 0-2.9-.4-3.6-.9l.5-1.6zM515 126.3c0-.8.5-1.3 1.3-1.3s1.2.5 1.2 1.3-.5 1.3-1.3 1.3c-.7 0-1.2-.5-1.2-1.3zM524.6 123l-1.5 4.5h-1.9l4.8-14.2h2.2l4.8 14.2h-2l-1.5-4.5h-4.9zm4.7-1.5l-1.4-4.1c-.3-.9-.5-1.8-.7-2.6-.2.8-.4 1.7-.7 2.6l-1.4 4.1h4.2zM537.2 126.3c0-.8.5-1.3 1.3-1.3s1.2.5 1.2 1.3-.5 1.3-1.3 1.3c-.7 0-1.2-.5-1.2-1.3zM544.4 125.2c.8.5 2 .9 3.3.9 1.9 0 3-1 3-2.4 0-1.3-.8-2.1-2.7-2.8-2.3-.8-3.7-2-3.7-4 0-2.2 1.8-3.8 4.6-3.8 1.4 0 2.5.3 3.1.7l-.5 1.5c-.5-.3-1.4-.7-2.7-.7-1.9 0-2.7 1.2-2.7 2.1 0 1.3.9 2 2.8 2.7 2.4.9 3.6 2.1 3.6 4.2 0 2.2-1.6 4.1-5 4.1-1.4 0-2.9-.4-3.6-.9l.5-1.6z"/></g></svg>